<svg xmlns="http://www.w3.org/2000/svg" width="32" height="32" xmlns:v="https://vecta.io/nano"><path d="M18.5 9.781l.031.063H20.5c.012-.02.02-.043.031-.062v.063l.422-.012.145-.004.207-.004c.023-.004.043-.004.066-.004.117 0 .117 0 .223-.039v.063l.094-.016a2.05 2.05 0 0 1 .379-.016h.074l.152.004.23.004c.879.016 1.641.332 2.258.961.566.605.773 1.367.762 2.18a2.45 2.45 0 0 1-.293 1.07l-.047.094c-.187.332-.43.609-.703.875l-.094.094.055.008c.086.027.137.07.211.125a.57.57 0 0 0 .074.063l.066.055.25.188a2.98 2.98 0 0 1 .188.25l.07.098c.453.633.637 1.336.52 2.113A3.21 3.21 0 0 1 24.625 20c-.762.535-1.531.703-2.449.688a.9.9 0 0 0-.25.016c-.094.02-.18.016-.277.012-.039 0-.074-.004-.117-.004l-.125-.008-1.055-.02h-.121-.113-.098c-.086 0-.086 0-.176.035-.105-.004-.207-.016-.312-.027-.094-.008-.094-.008-.187.027-.02-.012-.043-.02-.062-.031l-.246-.004h-.074-.254-.172-.461l-.469.004h-.918a1.54 1.54 0 0 1-.035-.379v-.066-.219-.16-.434-.453-.766-.879-.758-.449L16.688 14c-.02-.012-.043-.02-.062-.031h.063l-.016-.09c-.02-.148-.02-.293-.02-.441v-.094-.305-.211-.445-.57-.437-.211l.035-1.32c.414-.027.824-.031 1.242-.016l.168.004.402.012v-.062zm.188 2.125a2.62 2.62 0 0 0-.035.43v.121.133.137.281.363.277.137.184.109c-.004.074-.004.074.035.109a1.6 1.6 0 0 0 .137.004h.086.098.105.336.234.496l.504.004h.609.234.324.098c.48 0 .91-.094 1.266-.434a1.19 1.19 0 0 0 .316-.887c-.051-.316-.184-.539-.437-.734-.504-.344-1.219-.238-1.797-.238h-.227-.594l-.605.004h-1.184zm0 4.25l-.031 1.781v.203.484h.078.102c.035-.004.07-.004.105-.004a.45.45 0 0 1 .184.035l.184.004h.109.117.121l.75-.031c.105-.008.207.004.313.012.203.016.406.02.613.016h.109l.227-.004.34-.004c.523-.008.996-.035 1.406-.398.227-.23.352-.527.375-.852-.023-.336-.168-.648-.418-.883-.43-.355-.961-.363-1.496-.363h-.105-.34-.238-.559l-.637.004h-1.309zm0 0" fill="rgb(0%,34.509805%,58.823532%)"/><path d="M11.344 9.816l.422.004.789.004.906.008 1.852.012v2.063c-.078.039-.129.035-.215.035H15c-.031 0-.066 0-.102-.004h-.109-.449c-.109 0-.223 0-.332-.004h-.102-.098-.086c-.066 0-.066 0-.129.035v-.062l-.094.031c-.047.004-.09.004-.137.004h-.086-.094-.098c-.07 0-.141-.004-.211-.004h-.34c-.316 0-.637 0-.957-.004h-.586-.223c-.758-.023-.758-.023-1.457.223l-.125.063v.063h-.062c-.008.02-.02.035-.027.055-.02.043-.043.086-.066.125-.156.289-.191.582-.102.902A1.09 1.09 0 0 0 9.5 14c.328.137.68.168 1.027.199l.203.02.645.031v.063h.121c.164 0 .324.012.488.027l.094.012.195.02.293.027a5.64 5.64 0 0 1 1.496.352l.094.031.094.094.16.113c.641.469 1.012 1.055 1.184 1.824l.016.074a3.46 3.46 0 0 1-.547 2.488 3.48 3.48 0 0 1-.449.508c-.059.051-.059.051-.051.117-.02.004-.035.008-.055.008-.082.027-.137.066-.203.121-.742.531-1.605.559-2.48.574l-.184.008-.547.008h-.102-.328l-.141.004h-.203-.125c-.102-.004-.102-.004-.195-.035l-.246-.004H9.68h-.164l-.254.004h-.543-.633l-.254.004H7.68h-.074c-.16 0-.16 0-.23-.035-.012.02-.02.043-.031.063v-.062c-.023.004-.047.004-.07.008-.59.055-.59.055-.711-.008l.016-.062c.094-.367.141-.738.191-1.113l.043-.309.027-.191.012-.09.012-.074c.012-.066.012-.066.043-.16l2.051-.031h.078.801.301l.211.004h.129.113a1.37 1.37 0 0 0 .254-.035v.063l.094-.016c.133-.02.266-.02.402-.016h.16l.254.004c.512.012 1.031.016 1.434-.34.191-.199.285-.437.297-.711-.012-.27-.105-.516-.293-.711-.426-.359-1.043-.355-1.574-.41l-.301-.031-.195-.02-.094-.012c-.176-.016-.348-.023-.527-.02v-.062l-.113.004c-.195 0-.387-.031-.578-.059l-.113-.016a5.49 5.49 0 0 1-.789-.18l-.086-.027c-.266-.082-.496-.23-.727-.379l-.055-.035c-.047-.027-.09-.059-.133-.09v-.062l-.055-.023c-.516-.281-.805-.988-.977-1.516-.234-.863-.148-1.777.297-2.551.438-.727 1.105-1.207 1.91-1.449.254-.059.5-.098.758-.105l.09-.004 1.414-.004zm0 0" fill="rgb(0%,65.490198%,87.058824%)"/><path d="M22.063 21.031c.012.02.02.043.031.063.023-.004.047-.004.07-.008.031 0 .063-.004.094-.008l.094-.008c.07-.008.141-.008.211-.008-.047.105-.102.172-.184.254l-.07.07-.074.074-.074.074-.07.07-.066.066c-.055.047-.055.047-.117.047-.008.016-.016.035-.023.055-.047.086-.109.148-.18.219l-.043.043-.141.141-.098.102-.207.203-.262.266-.203.199-.098.098-.137.137-.078.078c-.062.055-.062.055-.125.055-.008.027-.008.027-.02.055a.61.61 0 0 1-.23.227c-.102.023-.199.02-.305.02h-.09-.305l-.223.004h-.594-.559-1.105l-1.074.004h-.066-.332l-2.754.004-.031.078-.043.102-.043.105c-.141.332-.437.551-.77.688-.344.117-.664.086-1.02.027v-.062l-.055-.012c-.289-.082-.547-.355-.691-.609-.172-.336-.187-.75-.078-1.113.137-.355.391-.652.738-.824a1.65 1.65 0 0 1 1.184-.031c.137.066.254.145.371.246l.094.063.094.117.047.063a2.05 2.05 0 0 1 .141.258l2.688.07.32.008h.063l.895.027c2.066.195 2.066.195 3.906-.52.289-.27.527-.594.719-.937l.035-.055h.063l.023-.055a.35.35 0 0 1 .164-.164c.102-.012.203-.008.305-.008.027.004.055.004.086.004l.203.004v-.062zm-11.297 1.828c-.129.191-.125.387-.109.609.055.172.168.277.313.375.176.078.344.074.531.031.176-.09.301-.223.375-.406.023-.191.031-.383-.082-.547-.156-.168-.301-.254-.531-.277a.72.72 0 0 0-.496.215zm0 0" fill="rgb(0%,39.607844%,64.313728%)"/><path d="M20.656 6.313c.266.246.461.535.477.906.004.047.004.09 0 .133v.074c-.004.32-.109.559-.289.824l-.039.059a1.37 1.37 0 0 1-.766.469c-.449.035-.844-.008-1.195-.309-.102-.098-.195-.199-.281-.312v-.062c-.773 0-1.543-.004-2.316-.004h-1.074c-.312 0-.625 0-.937-.004h-.496-.469-.172-.23-.07c-.113 0-.203.004-.297.07l-.125.156h-.062v.063h-.062l-.023.055a.92.92 0 0 1-.176.215l-.086.082-.086.086-.168.164-.078.074c-.074.074-.074.074-.137.16l-.059.07h-.062v.063c-.109.074-.191.074-.32.074-.023 0-.047.004-.066.004l-.215.004-.141.004-.352.008-.031.063v-.187c.02-.004.035-.004.055-.008.086-.027.125-.07.188-.133l.063-.062.172-.195.359-.391.461-.492.367-.379.219-.25c.102-.109.172-.18.324-.199h.133.074.25l.176-.004h.48.504l.953-.004 1.086-.004 2.23-.004.023-.086.035-.109.035-.113c.109-.336.379-.57.684-.73.523-.25 1.066-.18 1.535.164zm-1.391.664c-.113.152-.156.297-.148.488.027.195.137.348.289.465a.69.69 0 0 0 .488.086c.188-.051.305-.164.418-.316.059-.195.063-.395-.008-.59a.72.72 0 0 0-.461-.328c-.215-.027-.43.035-.578.195zm0 0" fill="rgb(0%,63.529414%,85.882354%)"/><path d="M20.656 6.313c.266.246.461.535.477.906.004.047.004.09 0 .133v.074c-.004.32-.109.559-.289.824l-.039.059a1.37 1.37 0 0 1-.766.469c-.449.035-.844-.008-1.195-.309-.102-.098-.195-.199-.281-.312v-.062h-.086-2.098l-1.012.004h-.883-.469-.441-.16c-.273 0-.547-.004-.82-.035v-.031l2.32-.02 1.078-.008L16.93 8l.496-.004.469-.004h.172c.434-.012.434-.012.59.113l.133.184c.086.133.199.199.336.273.023.012.043.027.066.039.285.145.656.129.961.059a1.36 1.36 0 0 0 .504-.316h.063c.008-.02.016-.035.027-.055.035-.074.082-.141.129-.211.172-.285.234-.637.172-.969a1.39 1.39 0 0 0-.422-.703c-.023-.02-.043-.043-.066-.062-.352-.246-.734-.301-1.152-.234-.34.09-.633.332-.812.633-.082.148-.129.305-.168.469-.02.07-.02.07-.051.102h-.23-.074-.16l-.449-.008h-.098l-1.227-.008a120.32 120.32 0 0 1-1.191-.008l-.949-.004c-.168 0-.336-.004-.504-.004-.789-.051-.789-.051-1.473.266-.121.129-.223.262-.301.422h-.062c-.008.016-.012.035-.02.051-.059.102-.137.176-.223.254l-.355.379-.316.34-.066.074-.27.277h.906c-.012.02-.02.043-.031.063l-1 .031-.031.063v-.187c.02-.004.035-.004.055-.008.086-.027.125-.07.188-.133l.063-.062.172-.195.359-.391.461-.492.367-.379.219-.25c.102-.109.172-.18.324-.199h.133.074.25l.176-.004h.48.504l.953-.004 1.086-.004 2.23-.004.023-.086.035-.109.035-.113c.109-.336.379-.57.684-.73.523-.25 1.066-.18 1.535.164zm0 0" fill="rgb(2.352941%,45.09804%,61.176473%)"/><path d="M21.813 9.844l.465-.008h.156c.836-.02 1.605.238 2.219.816.539.527.879 1.242.891 2 0 .5-.055.934-.293 1.379l-.047.094c-.187.332-.43.609-.703.875l-.094.094.055.008c.086.027.137.07.211.125a.57.57 0 0 0 .074.063l.066.055.25.188a2.98 2.98 0 0 1 .188.25l.07.098c.453.633.637 1.336.52 2.113A3.21 3.21 0 0 1 24.625 20c-.762.535-1.531.703-2.449.688a.9.9 0 0 0-.25.016c-.094.02-.18.016-.277.012-.039 0-.074-.004-.117-.004l-.125-.008-1.055-.02h-.121-.113-.098c-.086 0-.086 0-.176.035-.105-.004-.207-.016-.312-.027-.094-.008-.094-.008-.187.027-.02-.012-.043-.02-.062-.031l-.246-.004h-.074-.254-.172-.461l-.469.004h-.918a1.35 1.35 0 0 1-.035-.281v-.074-.078-.078-.172-.258l.035-1.059h.031v1.938l2.109-.012.977-.004.855-.004.449-.004h.426.156l.215-.004h.117c.082-.004.148-.012.227-.035l.215-.008h.133l.203-.004c.387-.008.75-.051 1.105-.215.023-.008.043-.016.066-.027.332-.152.605-.367.871-.621.023-.02.047-.043.07-.066.516-.477.84-1.223.875-1.922.023-.789-.211-1.457-.754-2.035a3.47 3.47 0 0 0-.691-.57c.047-.113.109-.172.203-.25.336-.297.559-.652.734-1.062.008-.02.016-.039.027-.059.246-.594.215-1.383-.023-1.977-.293-.707-.797-1.277-1.504-1.582-.5-.195-.977-.266-1.508-.277-.047 0-.09-.004-.137-.004l-.324-.008v-.031zm0 0" fill="rgb(0.784314%,13.725491%,25.490198%)"/><path d="M22.414 21.059h.086c.031.004.031.004.063.004-.047.105-.102.172-.184.254l-.07.07-.074.074-.074.074-.07.07-.066.066c-.055.047-.055.047-.117.047-.008.016-.016.035-.023.055-.047.086-.109.148-.18.219l-.043.043-.141.141-.098.102-.207.203-.262.266-.203.199-.098.098-.137.137-.078.078c-.062.055-.062.055-.125.055-.008.027-.008.027-.02.055a.61.61 0 0 1-.23.227c-.102.023-.199.02-.305.02h-.09-.305l-.223.004h-.594-.559-1.105l-1.074.004h-.066-.332l-2.754.004-.031.078-.043.102-.043.105c-.141.332-.437.551-.77.688-.344.117-.664.086-1.02.027v-.062l-.055-.012c-.289-.082-.547-.355-.691-.609-.129-.258-.141-.5-.129-.785h.031l.016.113c.066.469.195.805.574 1.113.348.188.715.273 1.105.191.207-.066.383-.156.555-.293l.059-.047c.18-.156.258-.363.348-.578l.063-.125.109.004 2.621.098.328.004c.02 0 .043.004.066.004l.906.035 1.566.043h.121c1.137-.004 1.938-.195 2.762-1.012a10.33 10.33 0 0 0 1.039-1.258l.105-.137h.063v-.125h.125v-.062h-.312a.48.48 0 0 1 .289-.066zm0 0" fill="rgb(0.392157%,13.725491%,27.058825%)"/><path d="M15.594 17.156h.031c.035.941-.168 1.762-.781 2.5l-.23.227c-.059.051-.059.051-.051.117-.02.004-.035.008-.055.008-.082.027-.137.066-.203.121-.742.531-1.605.559-2.484.574l-.18.008-.547.008h-.102-.328l-.141.004h-.203-.125c-.102-.004-.102-.004-.195-.035l-.246-.004H9.68h-.164l-.254.004h-.543-.633l-.254.004H7.68h-.074c-.16 0-.16 0-.23-.035-.012.02-.02.043-.031.063v-.062l-.07.008c-.59.055-.59.055-.711-.008.004-.023.012-.047.016-.07.07-.281.117-.562.164-.844.004-.047.012-.09.02-.137l.051-.324h.031c.012.246-.027.484-.066.727l-.031.207c-.055.34-.055.34-.09.41l2.359-.008 1.098-.004.957-.004.504-.004h.477.176c.801-.004 1.625-.141 2.242-.699l.031-.094.074-.023c.109-.051.125-.117.176-.227.02-.008.039-.02.059-.027.289-.148.457-.645.559-.937.152-.473.203-.945.227-1.441zm0 0" fill="rgb(2.352941%,45.882353%,60.784316%)"/><path d="M21.773 21.086c.027.004.055.004.086.004l.203.004v.031l-.105-.012c-.266-.012-.457.012-.656.195l-.316.332-.195.207-.117.129-.141.148h-.062c-.008.016-.012.035-.02.051-.059.102-.137.176-.223.258l-.047.047-.094.094c-.035.031-.07.066-.102.102-.125.121-.215.16-.391.16h-.082-.09c-.102 0-.199 0-.301-.004h-.215-.578c-.203 0-.406 0-.609-.004h-1.02l-1.051-.004h-.066c-.109 0-.215-.004-.324-.004-.898 0-1.797-.004-2.695-.008v-.062l.109.004 2.59.055.32.004a.38.38 0 0 1 .066.004l.898.02 1.543.027h.121c1.289-.004 1.289-.004 2.355-.656a4.11 4.11 0 0 0 .617-.844l.035-.051h.063l.023-.055c.109-.195.266-.176.469-.172zm0 0" fill="rgb(1.176471%,25.490198%,42.352942%)"/><path d="M10.773 9.813h.148l.402.004.422.004.793.004.91.008 1.863.012v2.063c-.078.039-.129.035-.215.035H15h-.102c-.035-.004-.07-.004-.109-.004h-.449-.332c-.035-.004-.066-.004-.102-.004h-.098-.086c-.066 0-.066 0-.129.035v-.062l-.094.031c-.047.004-.09.004-.137.004h-.086-.094-.098c-.07 0-.141-.004-.211-.004h-.34c-.316 0-.637 0-.957-.004h-.586-.223c-.723-.027-.723-.027-1.398.195-.031.012-.031.012-.059.027-.02-.012-.043-.02-.062-.031.289-.191.539-.254.887-.254h.066.219.156.43.445.848l.965.004h1.984v-2h-5.5v-.031l1.023-.031zm0 0" fill="rgb(1.176471%,36.862746%,52.156866%)"/><path d="M9.875 23.156h.031l.016.113c.066.469.195.805.57 1.113.352.188.719.273 1.109.191.207-.066.383-.156.555-.293l.059-.047c.199-.176.297-.426.379-.672h7.469v.031l-7.406.031L12.5 24c-.156.309-.492.512-.812.625-.309.098-.621.051-.937 0v-.062l-.055-.012c-.289-.082-.547-.355-.691-.609-.129-.258-.141-.5-.129-.785zm0 0" fill="rgb(1.568628%,25.490198%,41.568628%)"/><path d="M18.625 17.531c.078.117.07.176.07.316 0 .02 0 .043-.004.063v.207.137l-.004.34h.07.094l.094-.004c.086.004.086.004.18.035l.184.004h.109.117.121l.75-.031c.102-.008.199.004.297.012.316.027.629.008.941 0l.371-.012h.086a3.68 3.68 0 0 1 .586.027c-.184.109-.406.098-.617.102h-.078l-.262.004h-.184l-.387.004-.484.008-.383.004-.18.004c-.312.004-.625 0-.937-.012-.039-.004-.039-.004-.078-.004l-.473-.047v-1.156zm0 0" fill="rgb(0.392157%,21.568628%,41.568628%)"/><path d="M12.523 7.238h.074l.254.004h.18l.488.004.512.004.973.008 1.102.008 2.27.016v.031h-.094l-2.25-.016-1.086-.008-.949-.008c-.168 0-.336 0-.5-.004-.789-.047-.789-.047-1.477.27-.121.129-.223.262-.301.422h-.062c-.008.016-.012.035-.02.051-.059.102-.137.176-.219.254a4.69 4.69 0 0 0-.359.379l-.316.34-.066.074-.27.277h.906c-.012.02-.02.043-.031.063l-1 .031-.031.063v-.187c.02-.004.035-.004.055-.008.086-.027.125-.07.191-.137l.059-.059.172-.195.359-.391.461-.496.367-.375.227-.254.047-.055.035-.051c.094-.066.191-.055.301-.055zm0 0" fill="rgb(1.176471%,53.725493%,71.764708%)"/><path d="M21.813 9.844l.465-.008h.156c.836-.02 1.605.238 2.219.816.406.395.664.867.816 1.41l.023.078c.074.273.027.578.008.859h-.031v-.055c-.02-.898-.254-1.625-.898-2.266-.629-.598-1.461-.773-2.297-.793-.047 0-.09-.004-.137-.004l-.324-.008v-.031zm0 0" fill="rgb(0.784314%,21.568628%,38.431373%)"/><path d="M25.813 17.188h.031c.148.668-.109 1.398-.449 1.969-.48.754-1.215 1.207-2.055 1.457a.74.74 0 0 1-.207.012h-.074H23c.098-.055.191-.078.301-.102.605-.125 1.094-.406 1.543-.836.023-.02.047-.043.07-.066.617-.574.859-1.402.891-2.223l.008-.211zm0 0" fill="rgb(1.176471%,12.156863%,24.705882%)"/><path d="M15.594 17.156h.031c.035.941-.168 1.762-.781 2.5l-.23.227c-.059.051-.059.051-.051.117-.02.004-.035.008-.055.008-.082.027-.137.066-.203.121-.426.305-1.023.555-1.555.527v-.062l.082-.008c.59-.078 1.188-.27 1.637-.68l.031-.094.074-.023c.109-.051.125-.117.176-.227.02-.008.039-.02.059-.027.289-.148.457-.645.559-.937.152-.473.203-.945.227-1.441zm0 0" fill="rgb(1.568628%,36.470589%,53.725493%)"/><path d="M18.625 16.125l1.539-.008.715-.004.621-.004h.332c.629-.008 1.188-.008 1.668.453a1.68 1.68 0 0 1 .188.281c.012.02.023.039.031.063.055.109.066.168.031.281l-.047-.102c-.156-.34-.156-.34-.422-.586l-.07-.066c-.484-.336-1.195-.254-1.754-.25h-.227-.586l-.945.004h-.328l-.203.004h-.09-.086-.074c-.086-.004-.176-.02-.262-.035v.531h-.031v-.562zm0 0" fill="rgb(0.392157%,5.098039%,13.725491%)"/><path d="M12.75 14.469c.453-.039.898.117 1.313.281l.094.031.094.094.156.113c.629.457 1.043 1.059 1.188 1.824a1.69 1.69 0 0 1 0 .281h-.031l-.023-.117c-.055-.297-.121-.578-.258-.852l-.055-.105c-.141-.273-.32-.492-.539-.707l-.07-.07c-.504-.484-1.195-.648-1.867-.742v-.031zm0 0" fill="rgb(0.784314%,47.058824%,65.490198%)"/><path d="M12.75 16.563c.266.039.465.219.633.422.145.211.199.449.18.703l-.008.109c-.07.313-.273.539-.535.715a1.22 1.22 0 0 1-.363.145l-.062.016c-.129.02-.254.02-.383.02h-.082c-.09 0-.176 0-.262-.004h-.18-.437c.109-.07.195-.07.324-.066l.121.004h.063c.77.02.77.02 1.43-.336.191-.199.285-.437.297-.711-.012-.27-.105-.512-.289-.707-.113-.094-.242-.164-.371-.234-.023-.016-.051-.027-.074-.043v-.031zm0 0" fill="rgb(0.784314%,43.921569%,61.960787%)"/><path d="M20.047 6.789c.191.137.332.297.371.535a.81.81 0 0 1-.137.52c-.187.18-.344.227-.602.227-.203-.016-.352-.117-.492-.258-.121-.195-.117-.402-.094-.625.055-.176.195-.305.344-.406.191-.062.418-.059.609.008zm-.781.188c-.113.152-.156.297-.148.488.027.195.137.348.289.465a.69.69 0 0 0 .488.086c.188-.051.305-.164.418-.316.059-.195.063-.395-.008-.59a.72.72 0 0 0-.461-.328c-.215-.027-.43.035-.578.195zm0 0" fill="rgb(1.176471%,39.215687%,56.862748%)"/><path d="M21.773 21.086c.027.004.055.004.086.004l.203.004v.031l-.105-.012c-.266-.012-.457.012-.656.195l-.316.332-.195.207-.117.129-.141.148h-.062c-.008.016-.012.035-.02.051-.059.102-.141.18-.223.262l-.047.047-.336.297c-.02-.012-.043-.02-.062-.031l.559-.562.262-.262.25-.25.094-.098.133-.133.078-.078c.063-.055.063-.055.125-.055l.023-.055c.109-.195.266-.176.469-.172zm0 0" fill="rgb(0.784314%,20.392157%,38.039216%)"/><path d="M23.219 20.531l-.094.063-.062.063c-.078.012-.156.016-.234.02-.023 0-.047.004-.074.004l-.578.008a.9.9 0 0 0-.25.016c-.094.02-.18.016-.273.012l-.109-.004-.113-.008c-.039 0-.078 0-.117-.004l-.281-.012v-.031l.098-.004.363-.02.156-.012.227-.012c.023 0 .047 0 .07-.004.105-.004.203-.016.305-.043l.184-.012.109-.004h.113l.109-.008.453-.008zm0 0" fill="rgb(0.784314%,19.215687%,34.117648%)"/><path d="M20.469 6.188l-.062.063c-.02-.008-.039-.016-.059-.027l-.074-.035a.6.6 0 0 1-.074-.031c-.277-.113-.66-.102-.941 0a1.48 1.48 0 0 0-.758.781l-.094.344h-.031c-.027-.305.125-.578.313-.812a1.44 1.44 0 0 1 1.781-.281zm0 0" fill="rgb(1.960784%,41.960785%,59.607846%)"/><path d="M10.563 22.125c.02.012.043.02.063.031-.02.02-.043.035-.062.055-.316.281-.531.523-.559.965 0 .023-.004.047-.004.074s-.004.047-.004.07c-.016.309.09.57.285.805.137.145.266.27.469.313l-.062.063c-.309-.145-.551-.375-.687-.687-.125-.359-.133-.738.027-1.086l.035-.07.035-.066c.113-.199.277-.34.465-.465zm0 0" fill="rgb(0%,52.156866%,77.254903%)"/><path d="M20.438 6.219c.266.086.445.301.57.543.152.34.18.754.055 1.109-.051.113-.117.215-.187.316-.012-.02-.02-.043-.031-.062l.055-.086c.16-.27.207-.625.148-.93a1.49 1.49 0 0 0-.523-.789l-.086-.07v-.031zm0 0" fill="rgb(1.568628%,34.117648%,50.588238%)"/><path d="M15.25 9.844h.063v2.063h-.094l.031-2.062zm0 0" fill="rgb(1.568628%,46.27451%,62.352943%)"/><path d="M11.102 21.906h.117a.41.41 0 0 1-.234.086c-.273.055-.477.164-.66.371-.043.043-.043.043-.105.043-.008.02-.016.035-.027.055l-.074.137c-.109.203-.152.395-.18.621l-.062-.062c.016-.395.215-.695.492-.961.203-.168.469-.297.734-.289zm0 0" fill="rgb(1.568628%,36.078432%,52.549022%)"/><path d="M23.418 16.488c.117.105.195.215.27.355l.031.063c.055.109.066.168.031.281l-.047-.102c-.156-.34-.156-.34-.422-.586l-.07-.066c-.293-.203-.617-.219-.961-.246v-.031c.441-.07.82.051 1.168.332zm0 0" fill="rgb(0.392157%,18.431373%,35.686275%)"/><path d="M11.609 22.672c.164.098.27.273.328.453.023.223-.012.371-.125.563l-.062-.031.047-.07c.082-.168.082-.383.027-.559a.75.75 0 0 0-.324-.309c-.277-.086-.469-.004-.719.125.031-.094.063-.125.148-.18a.95.95 0 0 1 .68.008zm0 0" fill="rgb(1.176471%,36.078432%,54.11765%)"/><path d="M11.156 21.875l.227.012a.4.4 0 0 1 .066.004c.113.004.203.016.301.078l-.031.031.055.02.07.023.066.023c.059.027.059.027.09.09l-.18-.047-.105-.023-.184-.055c-.098-.008-.195-.004-.293-.008h-.082c-.141 0-.246.008-.375.07h-.094c-.012.02-.02.043-.031.063v-.094a1.77 1.77 0 0 1 .469-.125c.012-.02.02-.043.031-.062zm0 0" fill="rgb(0.392157%,50.980395%,72.941178%)"/><path d="M9.844 14.156l1.008.074a4.69 4.69 0 0 0 .523.02v.063h.055c.133-.004.254 0 .383.031v.031c-.207.004-.41-.004-.617-.023l-.086-.008-.176-.02-.266-.023-.824-.113v-.031zm0 0" fill="rgb(1.176471%,51.372552%,69.411767%)"/><path d="M22.688 18.625a.49.49 0 0 1-.277.07h-.09-.098c-.035 0-.066 0-.102-.004h-.316-.215c-.176 0-.352-.004-.527-.004.094-.094.191-.074.316-.078h.074l.164-.004.242-.008.828.027zm0 0" fill="rgb(0.392157%,17.254902%,33.725491%)"/><path d="M23.781 17.219h.031c.023.391-.043.695-.301.996-.184.203-.414.371-.691.406l-.102.004c.074-.074.141-.094.238-.133.336-.137.559-.336.707-.668.074-.195.094-.398.117-.605zm0 0" fill="rgb(0.392157%,14.509805%,30.588236%)"/><path d="M14.875 15.438a1.08 1.08 0 0 1 .297.328l.035.063c.234.379.418.813.387 1.266h-.031l-.023-.117c-.094-.5-.254-.996-.594-1.391-.07-.086-.07-.086-.07-.148zm0 0" fill="rgb(0.784314%,40.392157%,58.431375%)"/><path d="M17.25 9.813c.012.02.02.043.031.063h1.25c-.012.02-.02.043-.031.063h-.066-.664c-.082 0-.168-.004-.25-.004h-.355-.113-.105-.09c-.074 0-.074 0-.137.035v-.094h.531v-.062zm0 0" fill="rgb(0%,55.29412%,80.000001%)"/><path d="M23.5 13.219c.031.078.035.117.008.199-.184.352-.398.574-.777.719-.184.055-.32.094-.512.051v-.031c.023-.004.047-.004.07-.008.391-.055.734-.176.992-.492.086-.141.152-.289.219-.437zm0 0" fill="rgb(0.784314%,22.745098%,40.784314%)"/><path d="M8.719 10.125l-.105.051c-.437.223-.773.504-1.113.855 0-.133.055-.172.141-.266.762-.746.762-.746 1.078-.641zm0 0" fill="rgb(3.137255%,54.901963%,71.764708%)"/><path d="M6.813 19.281h.031c.012.254-.027.5-.062.754l-.031.219-.023.141c0 .023-.004.047-.008.07-.023.152-.023.152-.094.223-.02-.012-.043-.02-.062-.031.004-.023.012-.047.016-.07.07-.281.117-.562.164-.844.004-.047.012-.09.02-.137l.051-.324zm0 0" fill="rgb(3.921569%,48.235294%,63.137257%)"/><path d="M20.813 18.625v.063h-1.187c.012-.02.02-.043.031-.062h.059a6.12 6.12 0 0 0 .535-.016c.191-.016.375-.016.563.016zm0 0" fill="rgb(0.392157%,18.82353%,36.078432%)"/><path d="M24.531 14.875c.02.012.043.02.063.031-.023.02-.051.039-.078.059-.078.059-.078.059-.109.129.02.004.035.008.055.008.086.027.137.07.211.125a.57.57 0 0 0 .074.063l.066.055.25.188a.62.62 0 0 1 .063.125c-.094 0-.094 0-.152-.055-.02-.023-.043-.047-.066-.07-.137-.145-.285-.246-.461-.348l-.07-.059V15c.078-.07.078-.07.156-.125zm0 0" fill="rgb(0.784314%,18.431373%,35.294119%)"/><path d="M10.625 23.438c.063.031.063.031.102.117a.62.62 0 0 0 .344.301c.188.031.375.035.539-.074l.078-.062h.063c-.031.094-.031.094-.133.164-.207.094-.453.09-.664.016l-.078-.055c-.027-.02-.055-.039-.086-.055a.69.69 0 0 1-.164-.258v-.094zm0 0" fill="rgb(0.784314%,30.588236%,47.843137%)"/><path d="M22.063 21.031l.063.063c.074.016.074.016.16.02.027.004.059.004.086.008a.4.4 0 0 1 .066.004v.063h-.125l-.031.125c-.012-.02-.02-.043-.031-.062.012-.02.02-.043.031-.062H22c-.027-.004-.051-.004-.078-.004-.164 0-.32.012-.484.035l.063-.094c.059-.012.059-.012.129-.008h.078.078c.027.004.055.004.082.004l.195.004v-.094zm0 0" fill="rgb(0%,27.843139%,51.764709%)"/><path d="M15.5 16.75h.031l.063.219h.031L15.563 18c-.062-.062-.062-.062-.07-.18v-.148c0-.027 0-.055.004-.078v-.254-.172l.004-.418zm0 0" fill="rgb(0.392157%,54.901963%,77.254903%)"/><path d="M21.773 21.086c.027.004.055.004.086.004l.203.004v.031l-.105-.012c-.238-.012-.418-.004-.605.156l-.309.34c-.012.016-.027.031-.043.047h-.062c.043-.098.094-.168.172-.242l.059-.059c.051-.043.051-.043.113-.043l.023-.055c.109-.195.266-.176.469-.172zm0 0" fill="rgb(0.392157%,13.725491%,27.058825%)"/><path d="M23.219 20.531l-.094.063-.062.063h-.211c-.02 0-.043-.004-.062-.004-.066 0-.133-.004-.199-.008-.043 0-.09-.004-.133-.004l-.332-.016c.105-.062.188-.07.309-.074.035-.004.07-.004.109-.004l.113-.004.109-.004.453-.008zm0 0" fill="rgb(0%,23.921569%,47.843137%)"/><path d="M12.031 7.594c0 .137-.082.195-.172.289-.027.023-.027.023-.051.055l-.402.406-.09.094c-.066.063-.066.063-.129.094.051-.133.152-.219.25-.316.125-.113.125-.113.219-.246h.063l.023-.055c.047-.082.102-.137.168-.203l.07-.066c.016-.016.031-.035.051-.051zm0 0" fill="rgb(0.392157%,73.725492%,93.333334%)"/><path d="M22.688 11.938c.25.023.445.141.625.313.047.063.086.121.125.188-.012.02-.02.043-.031.063-.066-.062-.125-.125-.18-.203-.145-.164-.34-.25-.539-.328v-.031zm0 0" fill="rgb(0.784314%,24.313726%,42.352942%)"/><path d="M8.25 10.344c.02.012.043.02.063.031l-.055.039c-.258.199-.496.414-.727.648 0-.121.047-.152.129-.234l.055-.055.055-.055a2.79 2.79 0 0 1 .48-.375zm0 0" fill="rgb(0.784314%,77.64706%,96.470588%)"/><path d="M21.688 11.781l.875.063v.031h-.937l.063-.094zm0 0" fill="rgb(0%,41.176471%,67.450982%)"/><path d="M6.906 12.188l.063.063c-.008.055-.008.055-.027.125a1.43 1.43 0 0 0-.035.406c0 .063 0 .063-.031.094-.008.051-.012.105-.016.156l-.012.09c0 .02-.004.043-.004.066h-.031c-.008-.238 0-.473.031-.711 0-.023.004-.043.008-.066.02-.152.02-.152.055-.223zm0 0" fill="rgb(0.392157%,77.254903%,96.078432%)"/><path d="M9.969 22.844c.02.012.043.02.063.031-.004.023-.004.051-.008.074l-.023.738c-.148-.223-.094-.523-.047-.773.004-.023.012-.047.016-.07zm0 0" fill="rgb(0%,52.941179%,77.64706%)"/><path d="M19.5 20.625l.75.031v.031h-.066-.082c-.031-.004-.059-.004-.086-.004-.082 0-.082 0-.172.035-.078 0-.078 0-.16-.008-.027-.004-.055-.008-.086-.008a.33.33 0 0 0-.066-.016c-.012-.02-.02-.043-.031-.062zm0 0" fill="rgb(1.176471%,21.960784%,37.254903%)"/><path d="M22.414 21.059h.086c.031.004.031.004.063.004-.059.133-.137.191-.25.281v-.156h.125v-.062h-.312a.48.48 0 0 1 .289-.066zm0 0" fill="rgb(0.784314%,15.686275%,30.588236%)"/><path d="M14.75 19.563h.156c-.012.012-.023.027-.035.043l-.051.055-.051.059-.137.168c-.07.082-.07.082-.133.113v-.187c.023-.008.047-.012.07-.02.113-.055.133-.117.18-.23zm0 0" fill="rgb(1.960784%,44.313726%,62.7451%)"/><path d="M9.75 9.906v.031a2.4 2.4 0 0 1-.496.086c-.066.004-.066.004-.129.039h-.187c.246-.137.539-.172.813-.156zm0 0" fill="rgb(0.784314%,76.862746%,95.686275%)"/><path d="M22.438 21.125v.063h-.125l-.031.125c-.012-.02-.02-.043-.031-.062.012-.02.02-.043.031-.062h-.562v-.031l.254-.016c.023 0 .047-.004.07-.004l.395-.012zm0 0" fill="rgb(0.392157%,31.37255%,56.470591%)"/><path d="M11.438 22.625v.031l-.078.008c-.219.031-.387.066-.578.18.039-.086.059-.121.133-.18.176-.059.344-.047.523-.039zm0 0" fill="rgb(0.784314%,33.333334%,49.803922%)"/><path d="M18.969 20.625h.531l-.125.094-.094-.031a1.15 1.15 0 0 0-.164 0h-.082-.066v-.062zm0 0" fill="rgb(1.568628%,18.039216%,31.764707%)"/><path d="M15.281 11.219h.031v.688h-.094l.063-.687zm0 0" fill="rgb(1.960784%,54.509807%,70.980394%)"/><path d="M11.75 21.969l-.031.031.055.02.07.023.066.023c.059.027.059.027.09.09l-.18-.043-.105-.023c-.09-.027-.09-.027-.184-.09.113-.066.113-.066.219-.031zm0 0" fill="rgb(0%,53.725493%,78.039217%)"/><path d="M19.125 7.531l.125.188.156.219c-.094-.012-.125-.031-.195-.098-.062-.105-.078-.187-.086-.309zm0 0" fill="rgb(0.784314%,44.313726%,62.352943%)"/><path d="M11.344 22.563v.031l-.18.047-.102.023-.168.043-.051.012v-.062c.16-.105.313-.098.5-.094zm0 0" fill="rgb(0%,55.686277%,80.392158%)"/><path d="M24.969 19.563l.063.063-.25.25-.031-.094.219-.219zm0 0" fill="rgb(0.784314%,15.294118%,30.588236%)"/><path d="M11.688 23.719h.063c-.035.109-.051.117-.148.164l-.066.035c-.066.02-.066.02-.137-.008l-.055-.035c.02-.008.039-.012.059-.02l.078-.023.078-.023c.07-.023.07-.023.129-.09zm0 0" fill="rgb(0.784314%,35.686275%,53.725493%)"/><path d="M20.902 18.621l.191.004c-.012.02-.02.043-.031.063a1.21 1.21 0 0 1-.375.031c.02-.008.039-.02.063-.031.125-.062.125-.062.152-.066zm0 0" fill="rgb(0%,19.215687%,38.039216%)"/><path d="M22.691 18.586c.039.004.039.004.078.004h.078c.027.004.027.004.059.004-.086.098-.152.109-.281.125h-.062c0-.098.039-.121.129-.133zm0 0" fill="rgb(0%,25.490198%,49.411765%)"/><path d="M6.844 13.25c.012.02.02.043.031.063.02.012.043.02.063.031-.004.02-.012.039-.016.059-.023.066-.023.066.016.129l-.062.125c-.031-.094-.035-.156-.031-.258v-.082-.066zm0 0" fill="rgb(0.392157%,78.039217%,96.470588%)"/><path d="M25.781 16.906h.031l.02.137.012.078v.066l-.062.063c-.008-.047-.012-.09-.016-.137l-.012-.078c-.004-.066-.004-.066.027-.129zm0 0" fill="rgb(1.176471%,15.686275%,30.588236%)"/><path d="M16.656 13l.125.031-.031.219h-.062l-.031-.25zm0 0" fill="rgb(1.176471%,34.117648%,53.333336%)"/><path d="M7.406 11.125l.063.063-.219.281c-.012-.02-.02-.043-.031-.062l.188-.281zm0 0" fill="rgb(0.392157%,76.47059%,96.078432%)"/><path d="M18.906 6.313c-.047.117-.117.176-.219.25 0-.094 0-.094.074-.18.082-.07.082-.07.145-.07zm0 0" fill="rgb(2.352941%,46.666667%,64.705884%)"/><path d="M18.406 6.938l.063.063c-.008.066-.008.066-.027.145l-.02.078c-.004.02-.012.039-.016.059h-.031c-.004-.23-.004-.23.031-.344zm0 0" fill="rgb(1.568628%,47.058824%,65.490198%)"/><path d="M12.125 7.438c0 .094 0 .094-.078.18l-.078.07c-.02-.012-.043-.02-.062-.031.07-.09.121-.156.219-.219zm0 0" fill="rgb(1.960784%,49.411765%,65.882355%)"/><path d="M22 9.75l.094.031-.094.031V9.75zm0 0" fill="rgb(1.960784%,47.058824%,69.411767%)"/><path d="M9.625 9.75c.012.02.02.043.031.063l-.094-.031c.02-.012.043-.02.063-.031zm0 0" fill="rgb(6.27451%,74.509805%,90.196079%)"/><path d="M21.25 20.719l.094.031zm0 0" fill="rgb(0.392157%,30.19608%,52.156866%)"/><path d="M13.531 9.781l.094.031zm0 0" fill="rgb(3.137255%,74.901962%,90.980393%)"/><path d="M21.75 9.75l.063.031-.062.031V9.75zm0 0" fill="rgb(1.960784%,47.843137%,70.19608%)"/><path d="M19.5 9.75l.063.031-.062.031V9.75zm0 0" fill="rgb(2.352941%,55.29412%,76.862746%)"/><path d="M10.313 9.469l.094.031zm0 0" fill="rgb(4.313726%,73.725492%,90.980393%)"/><path d="M11.594 24.656l.063.031zm0 0" fill="rgb(1.176471%,40.784314%,59.215689%)"/><path d="M12.781 23.625l.063.031zm0 0" fill="rgb(1.960784%,45.09804%,66.274512%)"/><path d="M22.438 21l.063.031zm0 0" fill="rgb(0.784314%,27.843139%,48.627451%)"/><path d="M21.5 20.719l.063.031zm0 0" fill="rgb(0.392157%,30.980393%,52.549022%)"/><path d="M20.969 20.719l.063.031zm0 0" fill="rgb(0.784314%,29.411766%,52.549022%)"/><path d="M20 20.719l.063.031zm0 0" fill="rgb(0%,30.980393%,54.509807%)"/><path d="M19.25 20.719l.063.031zm0 0" fill="rgb(0.784314%,31.764707%,54.509807%)"/><path d="M18.469 20.719l.063.031zm0 0" fill="rgb(1.176471%,33.333334%,56.862748%)"/><path d="M17.25 20.719l.063.031zm0 0" fill="rgb(0.784314%,34.901962%,58.431375%)"/><path d="M8.75 20.719l.063.031zm0 0" fill="rgb(2.745098%,67.843139%,87.058824%)"/><path d="M14.938 19.531l.063.031zm0 0" fill="rgb(2.352941%,55.686277%,76.47059%)"/><path d="M12.844 16.688l.063.031zm0 0" fill="rgb(1.568628%,66.666669%,87.450981%)"/><path d="M10.688 16.375l.063.031zm0 0" fill="rgb(1.176471%,70.19608%,89.411765%)"/><path d="M9.375 16.219l.063.031zm0 0" fill="rgb(3.921569%,71.764708%,89.803922%)"/><path d="M22.594 14.031l.063.031zm0 0" fill="rgb(0%,38.82353%,60.784316%)"/><path d="M22.688 14l.063.031zm0 0" fill="rgb(0%,38.82353%,61.960787%)"/><path d="M15.094 11.938l.063.031zm0 0" fill="rgb(2.352941%,67.450982%,86.666667%)"/><path d="M9.406 9.813l.063.031zm0 0" fill="rgb(6.27451%,73.725492%,89.803922%)"/><path d="M22.219 9.781l.063.031zm0 0" fill="rgb(2.352941%,47.843137%,70.19608%)"/><path d="M21.656 9.781l.063.031zm0 0" fill="rgb(1.960784%,49.019608%,71.372551%)"/><path d="M20.688 9.781l.063.031zm0 0" fill="rgb(2.745098%,52.156866%,74.117649%)"/><path d="M14.625 9.781l.063.031zm0 0" fill="rgb(2.745098%,74.117649%,89.411765%)"/><path d="M22.281 9.75l.063.031zm0 0" fill="rgb(1.960784%,45.09804%,66.666669%)"/><path d="M19 9.75l.063.031zm0 0" fill="rgb(3.137255%,54.901963%,76.862746%)"/><path d="M16.688 9.75l.063.031zm0 0" fill="rgb(2.745098%,61.176473%,80.784315%)"/><path d="M20.125 6l.063.031zm0 0" fill="rgb(2.745098%,54.509807%,73.333335%)"/><path d="M19.313 6l.063.031zm0 0" fill="rgb(3.137255%,56.862748%,76.078433%)"/></svg>