<?xml version="1.0" encoding="UTF-8"?>
<svg version="1.1" xmlns="http://www.w3.org/2000/svg" width="96" height="96">
<path d="M0 0 C4.99535623 4.12659862 7.2591226 7.9082873 7.875 14.375 C5.16805755 16.21572087 3.65207102 16.375 0.3125 16.375 C-3.125 15.375 -3.125 15.375 -4.9375 12.375 C-5.329375 11.385 -5.72125 10.395 -6.125 9.375 C-8.4646669 8.20516655 -9.95891527 8.2088759 -12.5625 8.1875 C-13.34496094 8.17332031 -14.12742187 8.15914062 -14.93359375 8.14453125 C-17.41705987 8.23413936 -17.41705987 8.23413936 -20.125 10.375 C-20.48797936 12.35247122 -20.48797936 12.35247122 -20.3125 14.5 C-20.250625 15.77875 -20.18875 17.0575 -20.125 18.375 C-19.14273438 18.61283203 -19.14273438 18.61283203 -18.140625 18.85546875 C2.71276859 24.18663293 2.71276859 24.18663293 7.875 32.375 C9.36584832 36.84754497 9.36584832 40.90245503 7.875 45.375 C7.215 45.375 6.555 45.375 5.875 45.375 C5.71 46.07625 5.545 46.7775 5.375 47.5 C3.1353988 51.79256897 0.16716296 54.17674474 -4.125 56.375 C-12.08531325 58.36218996 -19.20909506 57.55887006 -26.375 53.5625 C-31.99444653 49.09248571 -33.8564737 45.29423435 -35.125 38.375 C-34.125 37.375 -34.125 37.375 -31.83984375 37.27734375 C-30.46505859 37.29474609 -30.46505859 37.29474609 -29.0625 37.3125 C-28.14339844 37.32152344 -27.22429688 37.33054688 -26.27734375 37.33984375 C-25.56707031 37.35144531 -24.85679688 37.36304688 -24.125 37.375 C-23.7125 38.2825 -23.3 39.19 -22.875 40.125 C-20.66191247 44.35873188 -20.66191247 44.35873188 -17.125 47.375 C-12.33014913 47.94333792 -7.77033274 47.69762946 -3.125 46.375 C-2.87545995 44.94089632 -2.65107358 43.50239928 -2.4375 42.0625 C-2.30988281 41.26199219 -2.18226562 40.46148437 -2.05078125 39.63671875 C-1.92789724 37.36953234 -1.92789724 37.36953234 -3.18359375 35.76953125 C-5.90945982 33.81151478 -8.77417985 32.65259113 -11.875 31.375 C-13.06609375 30.88 -14.2571875 30.385 -15.484375 29.875 C-17.33781945 29.11134907 -19.19173326 28.34853798 -21.05517578 27.60961914 C-26.08054141 25.56687805 -28.68852322 23.24795357 -31.125 18.375 C-31.67144038 13.39433027 -31.66704675 9.4791693 -29.4375 4.9375 C-22.63750257 -2.59763229 -9.11551801 -4.78614344 0 0 Z " fill="#E6789B" transform="translate(61.125,19.625)"/>
<path d="M0 0 C2.16874252 0.50603992 3.99967627 0.99983813 6 2 C7.49084832 6.47254497 7.49084832 10.52745503 6 15 C5.34 15 4.68 15 4 15 C3.835 15.70125 3.67 16.4025 3.5 17.125 C1.2603988 21.41756897 -1.70783704 23.80174474 -6 26 C-13.96031325 27.98718996 -21.08409506 27.18387006 -28.25 23.1875 C-33.86944653 18.71748571 -35.7314737 14.91923435 -37 8 C-36 7 -36 7 -33.71484375 6.90234375 C-32.34005859 6.91974609 -32.34005859 6.91974609 -30.9375 6.9375 C-30.01839844 6.94652344 -29.09929688 6.95554687 -28.15234375 6.96484375 C-27.44207031 6.97644531 -26.73179688 6.98804688 -26 7 C-25.5875 7.9075 -25.175 8.815 -24.75 9.75 C-22.53691247 13.98373188 -22.53691247 13.98373188 -19 17 C-14.20514913 17.56833792 -9.64533274 17.32262946 -5 16 C-4.95101562 15.39671875 -4.90203125 14.7934375 -4.8515625 14.171875 C-4.77679688 13.37265625 -4.70203125 12.5734375 -4.625 11.75 C-4.55539063 10.96109375 -4.48578125 10.1721875 -4.4140625 9.359375 C-3.76023818 5.63380999 -2.08690187 3.1303528 0 0 Z " fill="#41A8E8" transform="translate(63,50)"/>
<path d="M0 0 C15.23693812 -0.76079025 15.23693812 -0.76079025 21 4 C24.22014577 7.89807119 25.521575 10.97653748 26 16 C23.29305755 17.84072087 21.77707102 18 18.4375 18 C15 17 15 17 13.1875 14 C12.795625 13.01 12.40375 12.02 12 11 C9.35541621 9.67770811 7.32238699 9.90322806 4.375 9.9375 C2.87066406 9.95103516 2.87066406 9.95103516 1.3359375 9.96484375 C0.17964844 9.98224609 0.17964844 9.98224609 -1 10 C2.30790308 6.57027613 5.33113869 5.00047028 10 4 C10 3.01 10 2.02 10 1 C6.7 1 3.4 1 0 1 C0 0.67 0 0.34 0 0 Z " fill="#F3ADAF" transform="translate(43,18)"/>
<path d="M0 0 C8.64492052 0.21038523 17.82983521 2.15541286 24.3515625 8.16796875 C24.89554688 8.77253906 25.43953125 9.37710938 26 10 C25.67 10.66 25.34 11.32 25 12 C23.68 11.34 22.36 10.68 21 10 C20.731875 10.639375 20.46375 11.27875 20.1875 11.9375 C19 14 19 14 16 15 C13.1171875 14.07421875 13.1171875 14.07421875 9.875 12.6875 C8.79992187 12.23761719 7.72484375 11.78773437 6.6171875 11.32421875 C4 10 4 10 3 8 C3.33 7.01 3.66 6.02 4 5 C2.35 5 0.7 5 -1 5 C-0.67 3.35 -0.34 1.7 0 0 Z " fill="#DFB46C" transform="translate(42,40)"/>
<path d="M0 0 C1.23556641 0.01740234 1.23556641 0.01740234 2.49609375 0.03515625 C3.32238281 0.04417969 4.14867187 0.05320313 5 0.0625 C5.63808594 0.07410156 6.27617188 0.08570313 6.93359375 0.09765625 C6.93359375 1.08765625 6.93359375 2.07765625 6.93359375 3.09765625 C7.25029196 5.43330558 7.58180178 7.76703445 7.93359375 10.09765625 C8.92359375 10.09765625 9.91359375 10.09765625 10.93359375 10.09765625 C10.27359375 11.41765625 9.61359375 12.73765625 8.93359375 14.09765625 C8.60359375 13.43765625 8.27359375 12.77765625 7.93359375 12.09765625 C6.94359375 12.09765625 5.95359375 12.09765625 4.93359375 12.09765625 C4.93359375 12.75765625 4.93359375 13.41765625 4.93359375 14.09765625 C10.28111629 16.26557079 14.8678202 17.33247214 20.62109375 17.66015625 C21.32298828 17.70333984 22.02488281 17.74652344 22.74804688 17.79101562 C24.47634581 17.89682985 26.20494485 17.99772206 27.93359375 18.09765625 C27.93359375 18.42765625 27.93359375 18.75765625 27.93359375 19.09765625 C19.52462797 20.24152292 13.29186436 20.52823024 5.68359375 16.28515625 C0.06414722 11.81514196 -1.79787995 8.0168906 -3.06640625 1.09765625 C-2.06640625 0.09765625 -2.06640625 0.09765625 0 0 Z " fill="#85B1E0" transform="translate(29.06640625,56.90234375)"/>
<path d="M0 0 C2.16874252 0.50603992 3.99967627 0.99983813 6 2 C7.49084832 6.47254497 7.49084832 10.52745503 6 15 C5.34 15 4.68 15 4 15 C3.7525 15.78375 3.505 16.5675 3.25 17.375 C1.84610901 20.32317108 0.99324263 20.9024777 -2 22 C-1.67 21.01 -1.34 20.02 -1 19 C-0.34 19 0.32 19 1 19 C1.33 17.35 1.66 15.7 2 14 C-1.60992379 14.65585189 -1.60992379 14.65585189 -5 16 C-4.88490339 14.58249437 -4.75746342 13.16598831 -4.625 11.75 C-4.55539063 10.96109375 -4.48578125 10.1721875 -4.4140625 9.359375 C-3.76023818 5.63380999 -2.08690187 3.1303528 0 0 Z " fill="#4AC5E7" transform="translate(63,50)"/>
<path d="M0 0 C6.28095872 0.59254328 6.28095872 0.59254328 8.875 2.0625 C10.70232986 5.20956809 10.70463206 8.39651117 11 12 C8.36 12 5.72 12 3 12 C0 6.25 0 6.25 0 4 C-0.66 4 -1.32 4 -2 4 C-1.34 2.68 -0.68 1.36 0 0 Z " fill="#F08979" transform="translate(56,22)"/>
<path d="M0 0 C2.73058469 1.04404709 4.1850125 2.66465669 6.125 4.8125 C5.795 5.4725 5.465 6.1325 5.125 6.8125 C3.805 6.1525 2.485 5.4925 1.125 4.8125 C0.856875 5.451875 0.58875 6.09125 0.3125 6.75 C-0.875 8.8125 -0.875 8.8125 -3.875 9.8125 C-6.79296875 8.81640625 -6.79296875 8.81640625 -10.0625 7.375 C-11.14917969 6.90191406 -12.23585937 6.42882813 -13.35546875 5.94140625 C-14.18691406 5.56886719 -15.01835938 5.19632813 -15.875 4.8125 C-15.875 4.4825 -15.875 4.1525 -15.875 3.8125 C-9.935 3.3175 -9.935 3.3175 -3.875 2.8125 C-3.875 2.1525 -3.875 1.4925 -3.875 0.8125 C-1.875 -0.1875 -1.875 -0.1875 0 0 Z " fill="#A2BE94" transform="translate(61.875,45.1875)"/>
<path d="M0 0 C1.26328125 0.02707031 2.5265625 0.05414062 3.828125 0.08203125 C4.79234375 0.11683594 5.7565625 0.15164062 6.75 0.1875 C6.75 1.1775 6.75 2.1675 6.75 3.1875 C5.76 3.8475 4.77 4.5075 3.75 5.1875 C3.75 5.5175 3.75 5.8475 3.75 6.1875 C2.1103125 6.5896875 2.1103125 6.5896875 0.4375 7 C-2.86692663 8.06413739 -4.19960422 8.53404664 -6.25 11.1875 C-6.25 10.5275 -6.25 9.8675 -6.25 9.1875 C-6.91 8.8575 -7.57 8.5275 -8.25 8.1875 C-7.59 6.5375 -6.93 4.8875 -6.25 3.1875 C-7.9 3.1875 -9.55 3.1875 -11.25 3.1875 C-7.67487951 -0.25219926 -4.83224625 -0.13422906 0 0 Z " fill="#EA7F9F" transform="translate(46.25,18.8125)"/>
<path d="M0 0 C0.33 0 0.66 0 1 0 C1.0825 1.27875 1.165 2.5575 1.25 3.875 C1.45869931 6.05333418 1.45869931 6.05333418 2 8 C3.92064793 9.5899433 3.92064793 9.5899433 6 10 C5.01 10 4.02 10 3 10 C3 11.32 3 12.64 3 14 C4.32 14.33 5.64 14.66 7 15 C6.67 16.32 6.34 17.64 6 19 C3.36 18.01 0.72 17.02 -2 16 C-2 15.01 -2 14.02 -2 13 C-2.31669821 10.66435067 -2.64820803 8.3306218 -3 6 C-2.34 6 -1.68 6 -1 6 C-0.67 4.02 -0.34 2.04 0 0 Z " fill="#E4A58E" transform="translate(39,30)"/>
<path d="M0 0 C1 3 1 3 0 6 C0.66 6.33 1.32 6.66 2 7 C1.484375 7.53625 0.96875 8.0725 0.4375 8.625 C-1.25350756 10.95614624 -1.25350756 10.95614624 -1 13.9375 C0.22404804 17.68614714 2.05917687 19.43620547 5 22 C4.01 22.66 3.02 23.32 2 24 C-2.6632873 18.49971242 -4.33267407 15.89003527 -4.30078125 8.5546875 C-3.85478747 4.76663645 -2.42806933 2.88333233 0 0 Z " fill="#E274A4" transform="translate(34,22)"/>
<path d="M0 0 C0.53625 0.2475 1.0725 0.495 1.625 0.75 C1.25 3.1875 1.25 3.1875 0.625 5.75 C-0.365 6.245 -0.365 6.245 -1.375 6.75 C-1.705 7.74 -2.035 8.73 -2.375 9.75 C-6.0191774 12.1794516 -8.08741272 11.91179575 -12.375 11.75 C-12.045 11.09 -11.715 10.43 -11.375 9.75 C-10.715 9.75 -10.055 9.75 -9.375 9.75 C-9.375 9.09 -9.375 8.43 -9.375 7.75 C-8.055 7.75 -6.735 7.75 -5.375 7.75 C-5.375 6.76 -5.375 5.77 -5.375 4.75 C-6.365 4.42 -7.355 4.09 -8.375 3.75 C-2.95961538 -0.31153846 -2.95961538 -0.31153846 0 0 Z " fill="#3DACE8" transform="translate(63.375,63.25)"/>
<path d="M0 0 C3.875 0.875 3.875 0.875 5 2 C5.4375 4.25 5.4375 4.25 5 7 C3.16561687 9.08273038 1.30942523 10.38340234 -1 12 C-1.66 12 -2.32 12 -3 12 C-3.75 8.8125 -3.75 8.8125 -4 5 C-2.0625 2.0625 -2.0625 2.0625 0 0 Z " fill="#5EB3CF" transform="translate(63,50)"/>
<path d="M0 0 C2 2 2 2 2.125 4.625 C2.08375 5.40875 2.0425 6.1925 2 7 C2.99 7 3.98 7 5 7 C4.34 8.32 3.68 9.64 3 11 C2.67 10.34 2.34 9.68 2 9 C1.01 9 0.02 9 -1 9 C-1 9.66 -1 10.32 -1 11 C4.34752254 13.16791454 8.93422645 14.23481589 14.6875 14.5625 C15.38939453 14.60568359 16.09128906 14.64886719 16.81445312 14.69335938 C18.54275206 14.7991736 20.2713511 14.90006581 22 15 C22 15.33 22 15.66 22 16 C12.15408814 17.3393336 5.15094144 17.11320608 -3 11 C-2.67 10.01 -2.34 9.02 -2 8 C-1.34 7.67 -0.68 7.34 0 7 C0 4.69 0 2.38 0 0 Z " fill="#70CCF1" transform="translate(35,60)"/>
<path d="M0 0 C2 2 2 2 3.875 5.5 C5.49302026 8.4258186 6.70058354 9.93947328 10 11 C10 11.99 10 12.98 10 14 C10.66 14.33 11.32 14.66 12 15 C8.7 14.67 5.4 14.34 2 14 C2.66 12.68 3.32 11.36 4 10 C3.01 10 2.02 10 1 10 C0.71125 8.88625 0.4225 7.7725 0.125 6.625 C-0.69241329 2.99708908 -0.69241329 2.99708908 -3 1 C-2.01 0.67 -1.02 0.34 0 0 Z " fill="#4FA4E8" transform="translate(36,57)"/>
<path d="M0 0 C3.3 0 6.6 0 10 0 C10 0.99 10 1.98 10 3 C9.01 3.66 8.02 4.32 7 5 C7 5.33 7 5.66 7 6 C4.69 6.33 2.38 6.66 0 7 C0.66 5.35 1.32 3.7 2 2 C1.34 1.34 0.68 0.68 0 0 Z " fill="#ED7490" transform="translate(43,19)"/>
<path d="M0 0 C2.31 0.33 4.62 0.66 7 1 C6.67 2.32 6.34 3.64 6 5 C5.01 4.67 4.02 4.34 3 4 C3 5.98 3 7.96 3 10 C0 6.25 0 6.25 0 4 C-0.66 4 -1.32 4 -2 4 C-1.34 2.68 -0.68 1.36 0 0 Z " fill="#ED8280" transform="translate(56,22)"/>
<path d="M0 0 C-0.33 1.98 -0.66 3.96 -1 6 C-4.63 4.68 -8.26 3.36 -12 2 C-12 1.67 -12 1.34 -12 1 C-7.93631321 0.22596442 -4.13574827 -0.0984702 0 0 Z " fill="#D1C590" transform="translate(58,48)"/>
<path d="M0 0 C3.3 0.33 6.6 0.66 10 1 C9.34 2.32 8.68 3.64 8 5 C5 5 2 5 -1 5 C-0.67 3.35 -0.34 1.7 0 0 Z " fill="#EDAF79" transform="translate(42,40)"/>
<path d="M0 0 C0.33 0 0.66 0 1 0 C1.0825 1.27875 1.165 2.5575 1.25 3.875 C1.45869931 6.05333418 1.45869931 6.05333418 2 8 C3.92064793 9.5899433 3.92064793 9.5899433 6 10 C4.35 10 2.7 10 1 10 C1 9.34 1 8.68 1 8 C0.01 8 -0.98 8 -2 8 C-1.67 9.65 -1.34 11.3 -1 13 C-3 11 -3 11 -3.125 8.375 C-3.08375 7.59125 -3.0425 6.8075 -3 6 C-2.34 6 -1.68 6 -1 6 C-0.67 4.02 -0.34 2.04 0 0 Z " fill="#ED9BA5" transform="translate(39,30)"/>
<path d="M0 0 C2.31 0 4.62 0 7 0 C6.75 2.375 6.75 2.375 6 5 C3.9375 6.3125 3.9375 6.3125 2 7 C1.34 4.69 0.68 2.38 0 0 Z " fill="#619FE1" transform="translate(29,63)"/>
<path d="M0 0 C0.99 0 1.98 0 3 0 C3.2475 0.5775 3.495 1.155 3.75 1.75 C5.16683317 4.3002997 6.87627537 6.01785701 9 8 C8.01 8.66 7.02 9.32 6 10 C0.42857143 3.71428571 0.42857143 3.71428571 0 0 Z " fill="#DF92AD" transform="translate(30,36)"/>
<path d="M0 0 C3.79588866 0.54226981 5.47211993 2.20127563 8 5 C7.67 5.66 7.34 6.32 7 7 C5.68 6.34 4.36 5.68 3 5 C2.34 6.32 1.68 7.64 1 9 C0.01 9 -0.98 9 -2 9 C-1.34 8.21625 -0.68 7.4325 0 6.625 C2.20201441 4.28487188 2.20201441 4.28487188 2 2 C1.34 1.34 0.68 0.68 0 0 Z " fill="#B2D7CB" transform="translate(60,45)"/>
<path d="M0 0 C2.52282655 2.52282655 5 5.30389793 5 9 C3.68 9 2.36 9 1 9 C0.566875 7.576875 0.566875 7.576875 0.125 6.125 C-0.76825109 2.94788422 -0.76825109 2.94788422 -3 1 C-2.01 0.67 -1.02 0.34 0 0 Z " fill="#3CC0E1" transform="translate(36,57)"/>
<path d="M0 0 C0 1.32 0 2.64 0 4 C-2.64 4 -5.28 4 -8 4 C-8 3.34 -8 2.68 -8 2 C-2.25 0 -2.25 0 0 0 Z " fill="#ED9770" transform="translate(67,30)"/>
<path d="M0 0 C1.65 0.33 3.3 0.66 5 1 C4.67 1.99 4.34 2.98 4 4 C1.69 4 -0.62 4 -3 4 C-2.67 3.34 -2.34 2.68 -2 2 C-1.34 2 -0.68 2 0 2 C0 1.34 0 0.68 0 0 Z " fill="#39C1F0" transform="translate(54,71)"/>
<path d="M0 0 C0.99 0 1.98 0 3 0 C1.79618552 2.49361571 0.54571278 4.68143083 -1 7 C-1.99 7 -2.98 7 -4 7 C-2.79618552 4.50638429 -1.54571278 2.31856917 0 0 Z " fill="#77B9BC" transform="translate(63,50)"/>
<path d="M0 0 C5.75 0.75 5.75 0.75 8 3 C5.36 3.66 2.72 4.32 0 5 C0 3.35 0 1.7 0 0 Z " fill="#E7D481" transform="translate(52,42)"/>
<path d="M0 0 C2.475 0.495 2.475 0.495 5 1 C4.34 3.31 3.68 5.62 3 8 C2.01 7.67 1.02 7.34 0 7 C0.33 6.67 0.66 6.34 1 6 C0.71325582 3.99279077 0.38133299 1.9914056 0 0 Z " fill="#E18E8D" transform="translate(37,38)"/>
<path d="M0 0 C1 3 1 3 0.25 5.625 C-1 8 -1 8 -4 9 C-3.46930939 5.17902761 -2.50298434 2.93828597 0 0 Z " fill="#E27FB2" transform="translate(34,22)"/>
<path d="M0 0 C0.625 1.875 0.625 1.875 1 4 C0.34 4.66 -0.32 5.32 -1 6 C-3.475 5.01 -3.475 5.01 -6 4 C-4.03617993 2.49440461 -2.21736634 1.10868317 0 0 Z " fill="#BEC8A5" transform="translate(57,48)"/>
<path d="M0 0 C1.32 0.33 2.64 0.66 4 1 C3.34 2.32 2.68 3.64 2 5 C0.68 4.67 -0.64 4.34 -2 4 C-1.34 2.68 -0.68 1.36 0 0 Z " fill="#F97984" transform="translate(56,22)"/>
<path d="M0 0 C1.98 0 3.96 0 6 0 C5.01 0.495 5.01 0.495 4 1 C4 1.66 4 2.32 4 3 C1.69 3.33 -0.62 3.66 -3 4 C-3 3.01 -3 2.02 -3 1 C-2.01 1.33 -1.02 1.66 0 2 C0 1.34 0 0.68 0 0 Z " fill="#D2BE71" transform="translate(54,45)"/>
</svg>
